HIERARCHY
ROOT root
{
	OFFSET 0.000000 0.000000 0.000000
	CHANNELS 6 Xposition Yposition Zposition Zrotation Yrotation Xrotation
	JOINT lhip
	{
		OFFSET 0.058581 -0.082280 -0.017664
		CHANNELS 3 Zrotation Yrotation Xrotation
		JOINT lknee
		{
			OFFSET 0.043451 -0.386469 0.008037
			CHANNELS 3 Zrotation Yrotation Xrotation
			JOINT lankle
			{
				OFFSET -0.014790 -0.426874 -0.037428
				CHANNELS 3 Zrotation Yrotation Xrotation
				JOINT ltoe
				{
					OFFSET 0.041054 -0.060286 0.122042
					CHANNELS 3 Zrotation Yrotation Xrotation
					End Site
					{
						OFFSET 0.000000 0.000000 0.000000
					}
				}
			}
		}
	}
	JOINT rhip
	{
		OFFSET -0.060310 -0.090513 -0.013543
		CHANNELS 3 Zrotation Yrotation Xrotation
		JOINT rknee
		{
			OFFSET -0.043257 -0.383688 -0.004843
			CHANNELS 3 Zrotation Yrotation Xrotation
			JOINT rankle
			{
				OFFSET 0.019056 -0.420046 -0.034562
				CHANNELS 3 Zrotation Yrotation Xrotation
				JOINT rtoe
				{
					OFFSET -0.034840 -0.062106 0.130323
					CHANNELS 3 Zrotation Yrotation Xrotation
					End Site
					{
						OFFSET 0.000000 0.000000 0.000000
					}
				}
			}
		}
	}
	JOINT lowerback
	{
		OFFSET 0.004439 0.124404 -0.038385
		CHANNELS 3 Zrotation Yrotation Xrotation
		JOINT upperback
		{
			OFFSET 0.004488 0.137956 0.026820
			CHANNELS 3 Zrotation Yrotation Xrotation
			JOINT chest
			{
				OFFSET -0.002265 0.056032 0.002855
				CHANNELS 3 Zrotation Yrotation Xrotation
				JOINT lowerneck
				{
					OFFSET -0.013390 0.211636 -0.033468
					CHANNELS 3 Zrotation Yrotation Xrotation
					JOINT upperneck
					{
						OFFSET 0.010113 0.088937 0.050410
						CHANNELS 3 Zrotation Yrotation Xrotation
						End Site
						{
							OFFSET 0.000000 0.000000 0.000000
						}
					}
				}
				JOINT lclavicle
				{
					OFFSET 0.071702 0.114000 -0.018898
					CHANNELS 3 Zrotation Yrotation Xrotation
					JOINT lshoulder
					{
						OFFSET 0.122921 0.045205 -0.019046
						CHANNELS 3 Zrotation Yrotation Xrotation
						JOINT lelbow
						{
							OFFSET 0.255332 -0.015649 -0.022946
							CHANNELS 3 Zrotation Yrotation Xrotation
							JOINT lwrist
							{
								OFFSET 0.265709 0.012698 -0.007375
								CHANNELS 3 Zrotation Yrotation Xrotation
								End Site
								{
									OFFSET 0.000000 0.000000 0.000000
								}
							}
						}
					}
				}
				JOINT rclavicle
				{
					OFFSET -0.082954 0.112472 -0.023707
					CHANNELS 3 Zrotation Yrotation Xrotation
					JOINT rshoulder
					{
						OFFSET -0.113228 0.046853 -0.008472
						CHANNELS 3 Zrotation Yrotation Xrotation
						JOINT relbow
						{
							OFFSET -0.260127 -0.014369 -0.031269
							CHANNELS 3 Zrotation Yrotation Xrotation
							JOINT rwrist
							{
								OFFSET -0.269108 0.006794 -0.006027
								CHANNELS 3 Zrotation Yrotation Xrotation
								End Site
								{
									OFFSET 0.000000 0.000000 0.000000
								}
							}
						}
					}
				}
			}
		}
	}
}
MOTION
Frames: 8
Frame Time: 0.033333
0.094029 0.732068 1.225243 -91.126416 0.513379 105.172106 -1.296633 2.060338 -1.890054 2.589714 4.387063 -4.112943 -1.102764 20.471429 43.030176 0.000000 -0.000000 0.000000 2.479468 -10.660491 -1.636192 -0.766175 -4.581444 5.371283 10.042578 -14.992104 43.275834 0.000000 -0.000000 0.000000 -0.152359 6.841669 10.390371 -4.118696 -3.148438 -1.799349 1.854629 1.924843 -1.340391 -4.894449 -6.372275 1.434534 12.038021 2.531676 -21.577126 14.427485 -17.966300 -16.937288 15.059518 -12.317309 -19.250326 1.621317 -17.766802 -20.803467 -17.341256 -2.780385 9.342489 -14.224855 20.023662 -10.175725 -10.936585 13.088226 -26.173120 -18.706136 17.402961 -29.151021 0.553273 -0.187834 7.857719 
0.063208 0.733094 1.241889 -89.850822 0.199695 104.442925 -0.940690 0.820170 -8.759623 2.527035 5.903745 -4.416113 -1.081120 19.115092 42.060307 0.000000 -0.000000 0.000000 3.292584 -9.101106 -9.159229 -0.396621 -6.326186 5.833314 10.411268 -14.266027 42.535556 0.000000 -0.000000 0.000000 0.808413 6.580085 15.455820 -4.422096 -3.354127 -2.104226 2.051707 1.472845 -1.390987 -4.166474 -7.094732 -1.042037 12.620113 1.681176 -20.817137 10.940852 -21.937069 -16.123108 12.514933 -16.511423 -17.724471 2.479726 -17.418000 -23.881342 -14.475872 -3.883343 8.659024 -11.009866 23.876666 -9.030915 -8.852781 16.827881 -25.591167 -14.783316 15.562881 -29.255362 -7.270196 2.862442 9.962387 
0.036372 0.735420 1.247817 -88.106413 -0.300562 103.829253 -0.303261 -1.134804 -17.130650 2.264805 8.078951 -2.865672 0.267984 17.041037 41.415123 0.000000 -0.000000 0.000000 3.369738 -7.694485 -17.670514 -0.199246 -7.620464 5.323694 9.265063 -13.823514 41.465945 0.000000 -0.000000 0.000000 0.596142 5.431982 21.467277 -3.150063 -3.839845 -2.864780 2.737795 0.957489 -1.694500 -5.382240 -7.505716 -4.006160 13.878328 2.433890 -20.208859 8.576091 -26.292564 -14.866620 9.265855 -20.853290 -17.284394 4.998706 -18.738394 -23.590243 -13.539897 -4.397005 8.565869 -8.824557 28.170552 -6.743615 -5.482469 20.543692 -22.712536 -15.342088 18.589538 -24.513245 -1.906620 1.005855 5.987699 
0.009937 0.737999 1.237842 -86.719537 -0.859427 103.681220 0.302332 -3.056093 -25.889299 2.102006 9.982844 -1.345386 -0.668991 15.573621 38.522328 0.000000 -0.000000 0.000000 2.314959 -5.712075 -26.764390 -0.687775 -9.936960 3.724822 10.184930 -13.467596 40.417487 0.000000 -0.000000 0.000000 0.921367 3.812862 26.755605 -3.097228 -3.829663 -2.636374 3.178144 0.748339 -2.004719 -4.968711 -6.741914 -9.806814 13.882349 1.522958 -18.547594 8.697773 -30.807359 -16.009625 6.311816 -26.745189 -16.622819 7.208079 -18.816604 -22.659049 -10.173970 -6.797792 7.012962 -7.557898 33.121407 -6.278130 -2.569218 26.925717 -21.231215 -15.915909 17.328143 -23.016452 -1.261674 1.458969 3.435026 
-0.022474 0.738725 1.213702 -85.846443 -1.429745 103.495348 0.756750 -4.601587 -33.040801 2.302183 13.013220 -0.100679 -2.335816 13.262133 37.425156 0.000000 -0.000000 0.000000 0.823426 -4.697559 -34.338593 -1.903428 -13.057546 0.429035 11.317647 -12.112263 39.882233 0.000000 -0.000000 0.000000 1.657850 2.912240 31.086943 -2.940924 -3.935827 -3.031107 3.313632 0.789564 -1.747817 -5.486408 -5.853078 -15.400398 13.615402 -0.780619 -16.447181 10.315067 -33.845654 -17.043704 -1.913745 -34.532963 -15.386096 13.727573 -18.794798 -22.360477 -9.854466 -8.900143 5.002276 -7.886823 36.123428 -6.961349 4.552644 34.817393 -19.386066 -18.078077 16.442862 -19.203024 3.514133 1.189821 0.911762 
-0.061525 0.737959 1.177144 -86.015963 -1.878305 102.397803 1.182156 -5.395015 -38.165744 2.537687 15.729408 2.335907 -3.763306 10.944344 35.139184 0.000000 -0.000000 0.000000 -0.645927 -3.923096 -39.012938 -2.879377 -14.443104 -2.742043 12.251469 -10.241960 37.658131 0.000000 -0.000000 0.000000 2.557111 2.720470 34.646807 -3.351970 -3.428217 -3.329068 3.302115 0.792212 -0.782673 -6.480631 -5.672056 -19.282150 13.711817 -1.763361 -15.662012 8.956759 -34.423623 -17.092870 -11.988999 -40.413106 -9.563025 16.152912 -26.567039 -19.752006 -10.002861 -8.280787 3.410276 -5.928423 37.327196 -5.868803 13.312256 40.515208 -14.745154 -19.571609 18.941289 -17.343794 6.482069 0.374364 4.403715 
-0.109073 0.736282 1.130185 -86.111048 -2.553604 99.573550 0.975294 -6.208469 -39.429511 1.837248 15.819770 2.608583 -4.842522 9.061771 33.664365 0.000000 -0.000000 0.000000 -2.767762 -3.878528 -41.215363 -2.599168 -11.592730 -0.049856 13.917504 -7.358402 38.648223 0.000000 -0.000000 0.000000 2.701156 2.928490 38.170318 -3.062719 -2.852750 -2.208847 3.506155 0.628887 -0.816431 -6.604169 -5.828385 -20.626647 13.199605 -2.061006 -15.661929 4.206329 -33.216533 -14.629233 -24.528605 -40.812233 1.035241 16.061131 -40.461411 -11.376730 -9.558352 -8.820741 2.574771 -1.138657 37.472184 -3.200590 21.930484 41.775072 -8.437897 -19.168444 23.111428 -15.383295 7.823015 0.629055 7.228656 
-0.161946 0.735709 1.072737 -85.684276 -2.643688 96.336317 0.702735 -5.673533 -39.720676 0.237287 14.191675 3.695105 -8.280660 5.489937 30.493764 0.000000 -0.000000 0.000000 -4.463867 -3.242180 -41.834704 -2.652127 -9.434484 6.465383 14.720944 -4.483687 38.719147 0.000000 -0.000000 0.000000 3.405211 2.726065 41.203179 -2.776342 -2.482095 -2.219974 3.901000 0.330880 -0.511506 -6.923218 -6.865247 -20.169929 13.019110 -1.442658 -17.294148 -2.321637 -31.551265 -9.647843 -37.044493 -34.678141 11.107717 14.141412 -52.962468 -4.162665 -9.425295 -9.693026 2.047433 4.605042 36.382216 0.281753 31.222014 37.874182 -2.188901 -20.208149 29.222854 -16.811164 9.248949 1.146593 9.924842 
